<?xml version="1.0" encoding="UTF-8"?>
<svg version="1.1" xmlns="http://www.w3.org/2000/svg" width="256" height="256">
<path d="M0 0 C4.02290598 3.52719244 7.7722849 7.30671169 11.47265625 11.16796875 C11.51003906 10.07097656 11.54742187 8.97398438 11.5859375 7.84375 C11.65162278 6.38929018 11.71806924 4.93486459 11.78515625 3.48046875 C11.81899414 2.39862305 11.81899414 2.39862305 11.85351562 1.29492188 C12.0759446 -3.13343672 12.53518391 -6.29355882 15.47265625 -9.83203125 C17.33984375 -10.6796875 17.33984375 -10.6796875 19.34765625 -10.89453125 C20.00507813 -10.98863281 20.6625 -11.08273438 21.33984375 -11.1796875 C24.80428378 -10.61497109 26.10777453 -9.44161404 28.47265625 -6.83203125 C29.18779565 -3.27646183 29.05351046 0.22601227 28.9609375 3.83984375 C28.95032539 5.39617523 28.95032539 5.39617523 28.9394989 6.98394775 C28.91152266 10.29602323 28.84877554 13.60640474 28.78515625 16.91796875 C28.76007768 19.16403808 28.73726374 21.41013392 28.71679688 23.65625 C28.66168565 29.16073367 28.57802686 34.6642302 28.47265625 40.16796875 C30.32165527 40.13316406 30.32165527 40.13316406 32.20800781 40.09765625 C33.84309287 40.07888913 35.47818452 40.06068995 37.11328125 40.04296875 C37.92361816 40.02621094 38.73395508 40.00945312 39.56884766 39.9921875 C46.14660946 39.93876405 51.25657687 40.88443009 56.47265625 45.16796875 C62.32757858 51.37297922 63.62215656 56.30686534 63.66552734 64.74755859 C63.67370483 65.62444336 63.68188232 66.50132813 63.69030762 67.40478516 C63.71515609 70.31281865 63.73168321 73.22080305 63.74609375 76.12890625 C63.75141743 77.12492481 63.7567411 78.12094337 63.7622261 79.14714432 C63.7889652 84.42702718 63.80833097 89.70688643 63.82275391 94.98681641 C63.83605021 99.33989679 63.86382202 103.69250364 63.90478516 108.04541016 C63.9543599 113.31388651 63.97890639 118.58193592 63.98598099 123.85063553 C63.99265617 125.8495207 64.00777962 127.84839777 64.0318718 129.8471489 C64.21816986 146.24908579 62.47452636 158.86225383 50.47265625 171.16796875 C41.0016639 180.0481102 30.44969083 184.35838851 17.546875 184.265625 C16.42548882 184.26350258 16.42548882 184.26350258 15.28144836 184.26133728 C12.9076426 184.25576639 10.53393322 184.24321935 8.16015625 184.23046875 C6.54492324 184.22544998 4.92968875 184.22088774 3.31445312 184.21679688 C-0.6328493 184.2058065 -4.58008022 184.18856207 -8.52734375 184.16796875 C-8.82390869 184.96106445 -9.12047363 185.75416016 -9.42602539 186.57128906 C-10.61593905 189.37685805 -11.46993316 190.26542582 -13.96484375 191.91796875 C-14.86009766 192.52898437 -14.86009766 192.52898437 -15.7734375 193.15234375 C-21.19873191 196.29393962 -27.64486688 195.47279561 -33.71484375 195.54296875 C-35.5256543 195.59904297 -35.5256543 195.59904297 -37.37304688 195.65625 C-44.7670384 195.72901755 -49.8710443 195.15241537 -55.52734375 190.16796875 C-59.37258879 186.22153305 -61.42868717 182.42911673 -61.59765625 176.84375 C-61.281243 170.76675429 -59.8510494 165.60800729 -55.52734375 161.16796875 C-48.96092996 155.97032854 -42.12958926 156.57103261 -34.02734375 156.66796875 C-32.73441406 156.6525 -31.44148437 156.63703125 -30.109375 156.62109375 C-23.07997636 156.64999159 -18.16109951 156.79239173 -12.52734375 161.16796875 C-8.52734375 165.47566106 -8.52734375 165.47566106 -8.52734375 168.16796875 C-4.15243971 168.12338178 0.22112674 168.05310843 4.59521484 167.96044922 C6.07882583 167.93246869 7.56257955 167.91114181 9.04638672 167.89697266 C20.2217813 167.78393765 30.40506717 166.9548922 38.94140625 158.921875 C47.10877226 149.5669073 47.80290826 138.46393272 47.59765625 126.54296875 C47.55640625 123.11921875 47.51515625 119.69546875 47.47265625 116.16796875 C40.21265625 116.16796875 32.95265625 116.16796875 25.47265625 116.16796875 C24.81265625 117.48796875 24.15265625 118.80796875 23.47265625 120.16796875 C16.64533149 130.37327301 4.8038371 136.04905931 -6.89054775 138.70460129 C-9.39714685 139.14508909 -11.68297781 139.29885499 -14.22389221 139.30841064 C-15.59652473 139.31697586 -15.59652473 139.31697586 -16.99688721 139.32571411 C-18.48451569 139.3273909 -18.48451569 139.3273909 -20.00219727 139.32910156 C-21.05654465 139.33406647 -22.11089203 139.33903137 -23.19718933 139.34414673 C-26.68354956 139.35874408 -30.16986423 139.36556753 -33.65625 139.37109375 C-36.08658346 139.37684866 -38.51691692 139.38260635 -40.94725037 139.3883667 C-46.04564627 139.3988708 -51.14402644 139.40471686 -56.24243164 139.40820312 C-62.75310342 139.41367641 -69.26356488 139.43768221 -75.77417088 139.46617508 C-80.79728284 139.48486748 -85.8203449 139.49001065 -90.84348869 139.491539 C-93.24229007 139.49455284 -95.64109084 139.50253812 -98.03985786 139.51572418 C-101.40897372 139.53291725 -104.77758573 139.53087168 -108.14672852 139.52441406 C-109.12431122 139.53362885 -110.10189392 139.54284363 -111.10910034 139.55233765 C-126.2807486 139.46195385 -138.52462717 134.28442621 -149.65234375 124.09765625 C-154.52734375 119.08046875 -154.52734375 119.08046875 -154.52734375 116.16796875 C-155.15189453 116.18891602 -155.77644531 116.20986328 -156.41992188 116.23144531 C-159.28889435 116.31532719 -162.15760783 116.36685386 -165.02734375 116.41796875 C-166.00960937 116.45148438 -166.991875 116.485 -168.00390625 116.51953125 C-175.50435879 116.61953728 -180.85094624 115.40433413 -186.55078125 110.38671875 C-186.99679688 109.81953125 -187.4428125 109.25234375 -187.90234375 108.66796875 C-188.36382812 108.10078125 -188.8253125 107.53359375 -189.30078125 106.94921875 C-191.66056714 103.52226854 -192.77620271 100.89892685 -192.81787109 96.70996094 C-192.8306308 95.83515076 -192.8433905 94.96034058 -192.85653687 94.059021 C-192.85876251 93.1204425 -192.86098816 92.18186401 -192.86328125 91.21484375 C-192.86993805 90.24065491 -192.87659485 89.26646606 -192.88345337 88.26275635 C-192.89357286 86.20172003 -192.89827061 84.14065098 -192.89794922 82.07958984 C-192.90230878 78.94312716 -192.9385986 75.80808753 -192.9765625 72.671875 C-192.98243369 70.66536937 -192.98640106 68.65885709 -192.98828125 66.65234375 C-193.00265228 65.72186218 -193.01702332 64.79138062 -193.03182983 63.83270264 C-192.98334639 56.84045389 -191.52938156 51.25953055 -186.5625 46.14453125 C-185.91152344 45.69851562 -185.26054687 45.2525 -184.58984375 44.79296875 C-183.61724609 44.10074219 -183.61724609 44.10074219 -182.625 43.39453125 C-177.05459903 40.13735079 -172.53178033 39.91333943 -166.21484375 40.04296875 C-165.37888672 40.05199219 -164.54292969 40.06101563 -163.68164062 40.0703125 C-161.63008406 40.09375886 -159.57867598 40.12962609 -157.52734375 40.16796875 C-157.54399834 39.29806305 -157.54399834 39.29806305 -157.56098938 38.4105835 C-157.67158057 32.37625526 -157.74700955 26.34221466 -157.80200195 20.30712891 C-157.82715118 18.05473132 -157.86127493 15.80241539 -157.90454102 13.55029297 C-157.96517275 10.31327175 -157.99354967 7.07732903 -158.015625 3.83984375 C-158.04143143 2.83242126 -158.06723785 1.82499878 -158.09382629 0.78704834 C-158.09663295 -6.20383607 -158.09663295 -6.20383607 -155.13012695 -9.47729492 C-152.49274273 -10.85004092 -151.30378477 -11.30983555 -148.40234375 -10.89453125 C-147.73976562 -10.82363281 -147.0771875 -10.75273437 -146.39453125 -10.6796875 C-143.47284506 -9.35331532 -142.8102435 -7.74456042 -141.52734375 -4.83203125 C-141.05425162 -2.06394656 -140.92754373 0.676575 -140.83984375 3.48046875 C-140.80568359 4.22103516 -140.77152344 4.96160156 -140.73632812 5.72460938 C-140.65440821 7.53855039 -140.58918553 9.35323228 -140.52734375 11.16796875 C-139.40199219 9.99041016 -139.40199219 9.99041016 -138.25390625 8.7890625 C-101.1681349 -29.51113512 -41.6776171 -34.14790497 0 0 Z " fill="#D6E2EF" transform="translate(192.52734375,41.83203125)"/>
<path d="M0 0 C0 16.17 0 32.34 0 49 C-17.3125 49.3125 -17.3125 49.3125 -22.7043457 49.38793945 C-37.57555291 49.68023814 -50.79685149 52.19437311 -62.25 62.5 C-72.02522147 72.87987434 -74.47266672 85.30174489 -74.28125 99.01953125 C-74.0712113 104.67062247 -72.90249066 109.12829542 -70 114 C-69.56816406 114.73476562 -69.13632813 115.46953125 -68.69140625 116.2265625 C-67.86824228 117.57000517 -67.02369545 118.90083802 -66.1484375 120.2109375 C-65 122 -65 122 -64.1015625 124.1015625 C-62.7144407 126.4921341 -61.50438313 126.90775991 -59 128 C-57.57249521 128.9632974 -56.15628899 129.94348638 -54.75 130.9375 C-45.63231098 137.05575286 -36.54611631 138.06027997 -25.78125 138.31640625 C-25.03790405 138.33718735 -24.29455811 138.35796844 -23.52868652 138.37937927 C-21.18587252 138.44405128 -18.84295976 138.50337092 -16.5 138.5625 C-14.89842784 138.60576384 -13.29686518 138.64938044 -11.6953125 138.69335938 C-7.79697403 138.80030137 -3.89854669 138.8999827 0 139 C0 146.59 0 154.18 0 162 C-7.61309713 162.0746007 -15.22597767 162.12881488 -22.83935547 162.16479492 C-25.4250052 162.17980712 -28.01062978 162.20022313 -30.59619141 162.22631836 C-34.32981604 162.26303545 -38.06310166 162.27980274 -41.796875 162.29296875 C-42.93799744 162.30845261 -44.07911987 162.32393646 -45.25482178 162.33988953 C-61.04192094 162.34314087 -73.48714729 157.58345707 -85.125 146.9296875 C-90 141.9125 -90 141.9125 -90 139 C-90.62455078 139.02094727 -91.24910156 139.04189453 -91.89257812 139.06347656 C-94.7615506 139.14735844 -97.63026408 139.19888511 -100.5 139.25 C-101.48226562 139.28351563 -102.46453125 139.31703125 -103.4765625 139.3515625 C-110.97701504 139.45156853 -116.32360249 138.23636538 -122.0234375 133.21875 C-122.46945313 132.6515625 -122.91546875 132.084375 -123.375 131.5 C-123.83648437 130.9328125 -124.29796875 130.365625 -124.7734375 129.78125 C-127.13322339 126.35429979 -128.24885896 123.7309581 -128.29052734 119.54199219 C-128.30328705 118.66718201 -128.31604675 117.79237183 -128.32919312 116.89105225 C-128.33141876 115.95247375 -128.33364441 115.01389526 -128.3359375 114.046875 C-128.3425943 113.07268616 -128.3492511 112.09849731 -128.35610962 111.0947876 C-128.36622911 109.03375128 -128.37092686 106.97268223 -128.37060547 104.91162109 C-128.37496503 101.77515841 -128.41125485 98.64011878 -128.44921875 95.50390625 C-128.45508994 93.49740062 -128.45905731 91.49088834 -128.4609375 89.484375 C-128.47530853 88.55389343 -128.48967957 87.62341187 -128.50448608 86.66473389 C-128.45600264 79.67248514 -127.00203781 74.0915618 -122.03515625 68.9765625 C-121.38417969 68.53054687 -120.73320313 68.08453125 -120.0625 67.625 C-119.08990234 66.93277344 -119.08990234 66.93277344 -118.09765625 66.2265625 C-112.52725528 62.96938204 -108.00443658 62.74537068 -101.6875 62.875 C-100.85154297 62.88402344 -100.01558594 62.89304688 -99.15429688 62.90234375 C-97.10274031 62.92579011 -95.05133223 62.96165734 -93 63 C-93.01665459 62.1300943 -93.01665459 62.1300943 -93.03364563 61.24261475 C-93.14423682 55.20828651 -93.2196658 49.17424591 -93.2746582 43.13916016 C-93.29980743 40.88676257 -93.33393118 38.63444664 -93.37719727 36.38232422 C-93.437829 33.145303 -93.46620592 29.90936028 -93.48828125 26.671875 C-93.51408768 25.66445251 -93.5398941 24.65703003 -93.56648254 23.61907959 C-93.5692892 16.62819518 -93.5692892 16.62819518 -90.6027832 13.35473633 C-87.96539898 11.98199033 -86.77644102 11.5221957 -83.875 11.9375 C-83.21242187 12.00839844 -82.54984375 12.07929688 -81.8671875 12.15234375 C-78.94550131 13.47871593 -78.28289975 15.08747083 -77 18 C-76.52690787 20.76808469 -76.40019998 23.50860625 -76.3125 26.3125 C-76.27833984 27.05306641 -76.24417969 27.79363281 -76.20898438 28.55664062 C-76.12706446 30.37058164 -76.06184178 32.18526353 -76 34 C-74.87464844 32.82244141 -74.87464844 32.82244141 -73.7265625 31.62109375 C-53.53081973 10.76401268 -29.09441264 0 0 0 Z " fill="#EFF4F9" transform="translate(128,19)"/>
<path d="M0 0 C1.5511957 -0.00270152 3.10238974 -0.00658939 4.65357971 -0.01159668 C7.89039374 -0.01746259 11.12676342 -0.00902499 14.36352539 0.00976562 C18.48332143 0.03253479 22.60207361 0.01942726 26.72183132 -0.00452423 C29.92120523 -0.01907811 33.12033756 -0.01433243 36.31971931 -0.00401306 C37.83735342 -0.00137115 39.35501047 -0.00452478 40.87261772 -0.01393127 C52.80495617 -0.07167411 63.21187578 1.02782734 72.16015625 9.609375 C77.95418362 16.08815106 81.45408922 23.40830124 81.1953125 32.29296875 C80.01984454 40.60831617 76.39098564 48.92158649 69.76953125 54.21875 C63.19460154 58.80796269 57.64646953 60.77331892 49.54760742 60.82177734 C48.83942368 60.82849457 48.13123993 60.83521179 47.40159607 60.84213257 C45.07494975 60.86103251 42.74859317 60.86503277 40.421875 60.8671875 C38.79291163 60.87362138 37.1639494 60.88035018 35.5349884 60.88735962 C32.12477949 60.89931265 28.71467173 60.90304252 25.30444336 60.90185547 C20.95349952 60.90165248 16.60321031 60.92894219 12.25242138 60.96339989 C8.88846408 60.9857351 5.52466263 60.98969098 2.16063881 60.98863602 C0.55759744 60.99098249 -1.04544885 60.99975185 -2.64841652 61.01530075 C-14.71982983 61.12142677 -23.30103899 59.80668377 -32.3984375 51.32421875 C-39.52702277 43.90467082 -40.6637865 36.24801634 -40.48828125 26.29296875 C-39.63017323 17.50192595 -35.30308254 12.08294165 -28.890625 6.3203125 C-19.6601781 0.35762607 -10.70170956 -0.06622914 0 0 Z " fill="#01347C" transform="translate(108.12109375,82.46875)"/>
<path d="M0 0 C2.17191417 1.60697634 2.9089448 2.45859456 3.36076355 5.14506531 C3.35410172 5.97335342 3.34743988 6.80164154 3.34057617 7.6550293 C3.34034958 8.59577805 3.34012299 9.53652679 3.33988953 10.50578308 C3.32440567 11.51836685 3.30892181 12.53095062 3.29296875 13.57421875 C3.28872391 14.61318802 3.28447906 15.65215729 3.28010559 16.72261047 C3.26329849 20.04450276 3.22564196 23.36579075 3.1875 26.6875 C3.17245582 28.93814229 3.15876695 31.18879407 3.14648438 33.43945312 C3.11338836 38.95984197 3.06316869 44.47987782 3 50 C4.84899902 49.96519531 4.84899902 49.96519531 6.73535156 49.9296875 C8.37043662 49.91092038 10.00552827 49.8927212 11.640625 49.875 C12.45096191 49.85824219 13.26129883 49.84148437 14.09619141 49.82421875 C20.67395321 49.7707953 25.78392062 50.71646134 31 55 C36.85492233 61.20501047 38.14950031 66.13889659 38.19287109 74.57958984 C38.20513733 75.89491699 38.20513733 75.89491699 38.21765137 77.23681641 C38.24249984 80.1448499 38.25902696 83.0528343 38.2734375 85.9609375 C38.27876118 86.95695606 38.28408485 87.95297462 38.28956985 88.97917557 C38.31630895 94.25905843 38.33567472 99.53891768 38.35009766 104.81884766 C38.36339396 109.17192804 38.39116577 113.52453489 38.43212891 117.87744141 C38.48170365 123.14591776 38.50625014 128.41396717 38.51332474 133.68266678 C38.51999992 135.68155195 38.53512337 137.68042902 38.55921555 139.67918015 C38.74551361 156.08111704 37.00187011 168.69428508 25 181 C15.52900765 189.88014145 4.97703458 194.19041976 -7.92578125 194.09765625 C-9.04716743 194.09553383 -9.04716743 194.09553383 -10.19120789 194.09336853 C-12.56501365 194.08779764 -14.93872303 194.0752506 -17.3125 194.0625 C-18.92773301 194.05748123 -20.5429675 194.05291899 -22.15820312 194.04882812 C-26.10550555 194.03783775 -30.05273647 194.02059332 -34 194 C-34.29656494 194.7930957 -34.59312988 195.58619141 -34.89868164 196.40332031 C-36.0885953 199.2088893 -36.94258941 200.09745707 -39.4375 201.75 C-40.03433594 202.15734375 -40.63117188 202.5646875 -41.24609375 202.984375 C-46.67138816 206.12597087 -53.11752313 205.30482686 -59.1875 205.375 C-60.39470703 205.41238281 -61.60191406 205.44976562 -62.84570312 205.48828125 C-70.23969465 205.5610488 -75.34370055 204.98444662 -81 200 C-84.84524504 196.0535643 -86.90134342 192.26114798 -87.0703125 186.67578125 C-86.75389925 180.59878554 -85.32370565 175.44003854 -81 171 C-74.43358621 165.80235979 -67.60224551 166.40306386 -59.5 166.5 C-57.56060547 166.47679687 -57.56060547 166.47679687 -55.58203125 166.453125 C-48.55263261 166.48202284 -43.63375576 166.62442298 -38 171 C-34 175.30769231 -34 175.30769231 -34 178 C-29.62509596 177.95541303 -25.25152951 177.88513968 -20.87744141 177.79248047 C-19.39383042 177.76449994 -17.9100767 177.74317306 -16.42626953 177.72900391 C-5.25087495 177.6159689 4.93241092 176.78692345 13.46875 168.75390625 C21.63611601 159.39893855 22.33025201 148.29596397 22.125 136.375 C22.08375 132.95125 22.0425 129.5275 22 126 C14.74 126 7.48 126 0 126 C1.23697917 123.39583333 2.47395833 120.79166667 3.7109375 118.1875 C6.29742188 111.79182953 7.31386577 105.81225522 7.3359375 98.94140625 C7.3425943 98.19398666 7.3492511 97.44656708 7.35610962 96.67649841 C7.36617167 95.10084462 7.37092865 93.52514877 7.37060547 91.94946289 C7.37493279 89.59900856 7.41119016 87.25050821 7.44921875 84.90039062 C7.55217829 71.20038765 5.39599612 58.18641628 -0.3125 45.625 C-0.60664795 44.97635986 -0.9007959 44.32771973 -1.20385742 43.65942383 C-3.94813348 37.7730135 -7.30291907 32.33589252 -11 27 C-13.76505729 22.85241407 -13.33078822 19.49698182 -13.3125 14.625 C-13.32861328 13.77421875 -13.34472656 12.9234375 -13.36132812 12.046875 C-13.36505571 7.26065879 -13.24085812 3.8100955 -10 0 C-6.22941703 -1.25686099 -3.86146303 -0.82745636 0 0 Z " fill="#00429D" transform="translate(218,32)"/>
<path d="M0 0 C5.73375 0.0825 11.4675 0.165 17.375 0.25 C17.375 20.05 17.375 39.85 17.375 60.25 C11.455625 60.3325 5.53625 60.415 -0.5625 60.5 C-2.41222412 60.53641602 -4.26194824 60.57283203 -6.16772461 60.61035156 C-18.08148172 60.74871407 -25.93596549 59.40326975 -34.90234375 51.04296875 C-42.03092902 43.62342082 -43.16769275 35.96676634 -42.9921875 26.01171875 C-42.13407948 17.22067595 -37.80698879 11.80169165 -31.39453125 6.0390625 C-21.19486709 -0.54971914 -11.74856166 -0.2392265 0 0 Z " fill="#02439E" transform="translate(110.625,82.75)"/>
<path d="M0 0 C0.66257813 0.07089844 1.32515625 0.14179688 2.0078125 0.21484375 C4.93661614 1.54444708 5.58604285 3.13932932 6.875 6.0625 C8.84281133 15.18737484 8.13124032 24.0324727 3.23681641 32.01367188 C1.74364725 34.2595552 0.23043427 36.49061118 -1.2890625 38.71875 C-11.03141465 53.09208217 -13.67526072 71.18413209 -13.51611328 88.20678711 C-13.49991901 90.26026915 -13.51613627 92.31180824 -13.53515625 94.36523438 C-13.55686149 106.24565018 -11.41845059 116.42185821 -6.125 127.0625 C-9.62471199 127.1798794 -13.12390955 127.25013961 -16.625 127.3125 C-17.60726563 127.34601563 -18.58953125 127.37953125 -19.6015625 127.4140625 C-27.10201504 127.51406853 -32.44860249 126.29886538 -38.1484375 121.28125 C-38.81746094 120.43046875 -38.81746094 120.43046875 -39.5 119.5625 C-40.19222656 118.71171875 -40.19222656 118.71171875 -40.8984375 117.84375 C-43.25822339 114.41679979 -44.37385896 111.7934581 -44.41552734 107.60449219 C-44.42828705 106.72968201 -44.44104675 105.85487183 -44.45419312 104.95355225 C-44.45641876 104.01497375 -44.45864441 103.07639526 -44.4609375 102.109375 C-44.4675943 101.13518616 -44.4742511 100.16099731 -44.48110962 99.1572876 C-44.49122911 97.09625128 -44.49592686 95.03518223 -44.49560547 92.97412109 C-44.49996503 89.83765841 -44.53625485 86.70261878 -44.57421875 83.56640625 C-44.58008994 81.55990062 -44.58405731 79.55338834 -44.5859375 77.546875 C-44.60030853 76.61639343 -44.61467957 75.68591187 -44.62948608 74.72723389 C-44.58100264 67.73498514 -43.12703781 62.1540618 -38.16015625 57.0390625 C-37.50917969 56.59304687 -36.85820313 56.14703125 -36.1875 55.6875 C-35.53910156 55.22601563 -34.89070313 54.76453125 -34.22265625 54.2890625 C-28.65225528 51.03188204 -24.12943658 50.80787068 -17.8125 50.9375 C-16.97654297 50.94652344 -16.14058594 50.95554688 -15.27929688 50.96484375 C-13.22774031 50.98829011 -11.17633223 51.02415734 -9.125 51.0625 C-9.14165459 50.1925943 -9.14165459 50.1925943 -9.15864563 49.30511475 C-9.26923682 43.27078651 -9.3446658 37.23674591 -9.3996582 31.20166016 C-9.42480743 28.94926257 -9.45893118 26.69694664 -9.50219727 24.44482422 C-9.562829 21.207803 -9.59120592 17.97186028 -9.61328125 14.734375 C-9.63908768 13.72695251 -9.6648941 12.71953003 -9.69148254 11.68157959 C-9.6942892 4.69069518 -9.6942892 4.69069518 -6.7277832 1.41723633 C-4.09039898 0.04449033 -2.90144102 -0.4153043 0 0 Z " fill="#4793FE" transform="translate(44.125,30.9375)"/>
<path d="M0 0 C2.17191417 1.60697634 2.9089448 2.45859456 3.36076355 5.14506531 C3.35410172 5.97335342 3.34743988 6.80164154 3.34057617 7.6550293 C3.34034958 8.59577805 3.34012299 9.53652679 3.33988953 10.50578308 C3.32440567 11.51836685 3.30892181 12.53095062 3.29296875 13.57421875 C3.28872391 14.61318802 3.28447906 15.65215729 3.28010559 16.72261047 C3.26329849 20.04450276 3.22564196 23.36579075 3.1875 26.6875 C3.17245582 28.93814229 3.15876695 31.18879407 3.14648438 33.43945312 C3.11338836 38.95984197 3.06316869 44.47987782 3 50 C4.84899902 49.96519531 4.84899902 49.96519531 6.73535156 49.9296875 C8.37043662 49.91092038 10.00552827 49.8927212 11.640625 49.875 C12.45096191 49.85824219 13.26129883 49.84148437 14.09619141 49.82421875 C20.67395321 49.7707953 25.78392062 50.71646134 31 55 C35.28047978 59.53642599 38.08898346 63.68428565 38.17700195 70.05322266 C38.19625481 71.2706163 38.19625481 71.2706163 38.21589661 72.51260376 C38.22328354 73.38758514 38.23067047 74.26256653 38.23828125 75.1640625 C38.246353 76.07070648 38.25442474 76.97735046 38.26274109 77.91146851 C38.2765741 79.83304945 38.28729976 81.75465489 38.29516602 83.67626953 C38.30665929 85.63142143 38.32706883 87.58654261 38.35668945 89.54150391 C38.39960969 92.37423925 38.4155714 95.20604129 38.42578125 98.0390625 C38.44328934 98.9018985 38.46079742 99.7647345 38.47883606 100.65371704 C38.45374365 107.77693812 36.68644307 113.85707148 32 119.33984375 C31.34 119.86707031 30.68 120.39429688 30 120.9375 C29.34 121.48277344 28.68 122.02804688 28 122.58984375 C24.17581411 125.28619357 21.51422082 126.25016536 16.796875 126.1953125 C15.8171875 126.18886719 14.8375 126.18242187 13.828125 126.17578125 C12.81234375 126.15902344 11.7965625 126.14226562 10.75 126.125 C9.71875 126.11597656 8.6875 126.10695313 7.625 126.09765625 C5.08309713 126.07412011 2.5416672 126.04124023 0 126 C0.33773437 125.29875 0.67546875 124.5975 1.0234375 123.875 C1.46945313 122.92625 1.91546875 121.9775 2.375 121 C2.81585938 120.071875 3.25671875 119.14375 3.7109375 118.1875 C6.29742188 111.79182953 7.31386577 105.81225522 7.3359375 98.94140625 C7.3459227 97.82027687 7.3459227 97.82027687 7.35610962 96.67649841 C7.36617167 95.10084462 7.37092865 93.52514877 7.37060547 91.94946289 C7.37493279 89.59900856 7.41119016 87.25050821 7.44921875 84.90039062 C7.55217829 71.20038765 5.39599612 58.18641628 -0.3125 45.625 C-0.60664795 44.97635986 -0.9007959 44.32771973 -1.20385742 43.65942383 C-3.94813348 37.7730135 -7.30291907 32.33589252 -11 27 C-13.76505729 22.85241407 -13.33078822 19.49698182 -13.3125 14.625 C-13.32861328 13.77421875 -13.34472656 12.9234375 -13.36132812 12.046875 C-13.36505571 7.26065879 -13.24085812 3.8100955 -10 0 C-6.22941703 -1.25686099 -3.86146303 -0.82745636 0 0 Z " fill="#525CDC" transform="translate(218,32)"/>
<path d="M0 0 C1.17948463 0.00424484 1.17948463 0.00424484 2.38279724 0.00857544 C4.85822734 0.01963961 7.33327574 0.04471659 9.80859375 0.0703125 C11.50194785 0.08036016 13.1953077 0.08948285 14.88867188 0.09765625 C19.00795628 0.11953352 23.12696064 0.15396532 27.24609375 0.1953125 C27.24609375 5.1453125 27.24609375 10.0953125 27.24609375 15.1953125 C25.68882568 15.20933105 25.68882568 15.20933105 24.10009766 15.22363281 C20.20449777 15.26386354 16.30966049 15.32970921 12.41455078 15.40283203 C10.73691696 15.43085164 9.05915579 15.45215959 7.38134766 15.46630859 C-4.99889641 15.57691232 -15.57716559 16.11970383 -24.9921875 25.171875 C-31.23138991 32.33796557 -32.5281649 39.16729724 -32.16796875 48.5703125 C-31.26373472 56.48662551 -28.59628793 62.33072235 -22.69140625 67.7265625 C-16.04515004 72.7648535 -9.59986133 74.33839985 -1.3671875 74.51171875 C-0.14167427 74.5428904 -0.14167427 74.5428904 1.1085968 74.57469177 C3.71684409 74.64004329 6.3251915 74.69900523 8.93359375 74.7578125 C10.70248429 74.80101142 12.47136472 74.84462615 14.24023438 74.88867188 C18.57541838 74.99570993 22.91070304 75.09701794 27.24609375 75.1953125 C27.24609375 80.1453125 27.24609375 85.0953125 27.24609375 90.1953125 C22.60512919 90.24159359 17.96498734 90.28130471 13.32397461 90.30517578 C11.75005356 90.31514239 10.17615057 90.3287206 8.60229492 90.34619141 C-6.77356698 90.51241694 -20.39962035 89.62485386 -33.12890625 79.8203125 C-43.90516874 69.04405001 -48.07398778 57.9135738 -48.14111328 42.97949219 C-47.94634724 30.85147656 -43.0674218 21.6909487 -34.72265625 13.10546875 C-24.68592052 3.61651261 -13.65689112 -0.19024747 0 0 Z " fill="#D6E2EF" transform="translate(100.75390625,67.8046875)"/>
<path d="M0 0 C4.88990261 -0.09269958 9.77666102 -0.17206025 14.66674805 -0.21972656 C16.32408066 -0.23963061 17.98134506 -0.26676414 19.63842773 -0.30175781 C36.26176781 -0.6435743 50.61053915 2.00376397 63.25 13.6875 C71.46367086 22.35009619 75.35901192 32.54498361 75.3125 44.3125 C75.32861328 45.11623047 75.34472656 45.91996094 75.36132812 46.74804688 C75.37011107 57.66524309 70.82893493 68.3565107 63.5625 76.53125 C53.16086906 86.30878309 41.60744159 90.19364044 27.5390625 90.09765625 C26.74849457 90.0962413 25.95792664 90.09482635 25.1434021 90.09336853 C22.63722834 90.08780504 20.13114642 90.07525944 17.625 90.0625 C15.91797005 90.05748028 14.21093868 90.0529182 12.50390625 90.04882812 C8.33590252 90.03784759 4.16796679 90.02060839 0 90 C0 85.05 0 80.1 0 75 C1.0737085 74.9906543 2.14741699 74.98130859 3.25366211 74.97167969 C7.27408878 74.9315161 11.29377125 74.8656871 15.3137207 74.79248047 C17.04669566 74.76442263 18.77979497 74.74313325 20.51293945 74.72900391 C33.82257911 74.8230958 33.82257911 74.8230958 46 70 C47.051875 69.46375 48.10375 68.9275 49.1875 68.375 C56.12404144 62.51747612 59.48699257 54.13007427 60.375 45.25 C60.10613297 37.08909471 56.64396848 29.58933618 51.06640625 23.72265625 C43.79180308 17.65819501 36.17159816 15.89040808 26.953125 15.68359375 C26.18192322 15.66281265 25.41072144 15.64203156 24.6161499 15.62062073 C22.16085428 15.55541428 19.70545479 15.49637516 17.25 15.4375 C15.58202065 15.39428726 13.91405168 15.3506721 12.24609375 15.30664062 C8.16416804 15.19976264 4.08213818 15.09841434 0 15 C0 10.05 0 5.1 0 0 Z " fill="#A0B6DA" transform="translate(128,68)"/>
<path d="M0 0 C1.93939453 -0.02320313 1.93939453 -0.02320313 3.91796875 -0.046875 C10.9511359 -0.01796167 15.8558614 0.13605831 21.5 4.5 C25.85069695 8.96828336 27.27040637 13.16579814 27.875 19.3125 C27.69317373 24.89563595 25.8680258 30.23422986 21.78125 34.14453125 C14.86684303 39.2277923 8.55842996 38.77967133 0.3125 38.875 C-0.89470703 38.91238281 -2.10191406 38.94976562 -3.34570312 38.98828125 C-10.73969465 39.0610488 -15.84370055 38.48444662 -21.5 33.5 C-25.34524504 29.5535643 -27.40134342 25.76114798 -27.5703125 20.17578125 C-27.25389925 14.09878554 -25.82370565 8.94003854 -21.5 4.5 C-14.93358621 -0.69764021 -8.10224551 -0.09693614 0 0 Z " fill="#00337A" transform="translate(158.5,198.5)"/>
<path d="M0 0 C0.66257812 0.07089844 1.32515625 0.14179688 2.0078125 0.21484375 C4.93661614 1.54444708 5.58604285 3.13932932 6.875 6.0625 C8.88707645 15.39263518 7.99683588 24.22653078 3.12939453 32.43481445 C1.23560628 35.34925684 -0.74332293 38.19319477 -2.76367188 41.02099609 C-4.89464228 44.21668737 -6.4887112 47.59123019 -8.125 51.0625 C-8.455 51.0625 -8.785 51.0625 -9.125 51.0625 C-9.25174312 44.44242791 -9.33932681 37.82266843 -9.3996582 31.20166016 C-9.42480743 28.94926257 -9.45893118 26.69694664 -9.50219727 24.44482422 C-9.562829 21.207803 -9.59120592 17.97186028 -9.61328125 14.734375 C-9.63908768 13.72695251 -9.6648941 12.71953003 -9.69148254 11.68157959 C-9.6942892 4.69069518 -9.6942892 4.69069518 -6.7277832 1.41723633 C-4.09039898 0.04449033 -2.90144102 -0.4153043 0 0 Z " fill="#01429D" transform="translate(44.125,30.9375)"/>
<path d="M0 0 C2.17191417 1.60697634 2.9089448 2.45859456 3.36076355 5.14506531 C3.35410172 5.97335342 3.34743988 6.80164154 3.34057617 7.6550293 C3.34034958 8.59577805 3.34012299 9.53652679 3.33988953 10.50578308 C3.32440567 11.51836685 3.30892181 12.53095062 3.29296875 13.57421875 C3.28872391 14.61318802 3.28447906 15.65215729 3.28010559 16.72261047 C3.26329849 20.04450276 3.22564196 23.36579075 3.1875 26.6875 C3.17245582 28.93814229 3.15876695 31.18879407 3.14648438 33.43945312 C3.11338836 38.95984197 3.06316869 44.47987782 3 50 C-0.3047378 48.3476311 -1.2235423 44.72424512 -2.75 41.5 C-4.98749298 36.80177793 -7.0973656 32.66534164 -10.5 28.6875 C-14.97802504 22.42802631 -14.19165011 12.32838569 -13 5 C-11.65234375 1.984375 -11.65234375 1.984375 -10 0 C-6.22941703 -1.25686099 -3.86146303 -0.82745636 0 0 Z " fill="#00347A" transform="translate(218,32)"/>
<path d="M0 0 C2.81016371 2.16754914 3.87935088 3.34707534 4.53125 6.875 C4.5209375 7.90625 4.510625 8.9375 4.5 10 C4.5103125 11.03125 4.520625 12.0625 4.53125 13.125 C3.8771841 16.66465076 2.8398297 17.8447721 0 20 C-3.5 20.5625 -3.5 20.5625 -7 20 C-9.83998954 17.81539266 -10.8011725 16.14419597 -11.4140625 12.6171875 C-11.67133967 8.08098481 -11.47444627 5.6977151 -8.875 1.875 C-5.48818314 -0.3337936 -3.96139166 -0.75856436 0 0 Z " fill="#448FFB" transform="translate(102,103)"/>
<path d="M0 0 C3.0625 0.5625 3.0625 0.5625 5.9375 2.4375 C8.91547558 6.81687585 8.9571994 10.41375816 8.0625 15.5625 C6.5 18.6875 6.5 18.6875 4.0625 20.5625 C0.5625 21.125 0.5625 21.125 -2.9375 20.5625 C-5.7773297 18.4072721 -6.8146841 17.22715076 -7.46875 13.6875 C-7.4584375 12.65625 -7.448125 11.625 -7.4375 10.5625 C-7.4478125 9.53125 -7.458125 8.5 -7.46875 7.4375 C-6.62775995 2.88625974 -4.5063734 0.86292257 0 0 Z " fill="#4F5AD9" transform="translate(156.9375,102.4375)"/>
</svg>
